# xmcd
# Track frame offsets:
# 150
# 19004
# 38965
# 60343
# 82217
# 100900
# 115650
# 134980
# 153660
# 176601
# 193930
# 211263
# 228350
# 245303
# 262714
#
# Disc length: 3735 seconds
# Revision: 0
# Processed by: cddbd v1.5.1PL0 Copyright (c) Steve Scherf et al.
# Submitted via: VisiTrax 2.9.10.228 - For more info visit www.synapsa.com
#
DISCID=cc0e950f
DTITLE=Twain, Shania - CB90035
DYEAR=1900
DGENRE=Karaoke
TTITLE0=Any Man Of Mine
TTITLE1=Whose Bed Have Your Boots Been Under
TTITLE2=If You're Not In It For Love
TTITLE3=Woman In Me, The
TTITLE4=You Win My Love
TTITLE5=No One Needs To Know
TTITLE6=Home Ain't Where His Heart Is
TTITLE7=God Bless The Child
TTITLE8=From This Moment On
TTITLE9=You're Still The One
TTITLE10=Don't Be Stupid
TTITLE11=Honey I'm Home
TTITLE12=Love Gets Me Every Time
TTITLE13=That Don't Impress Me Much
TTITLE14=When
EXTD=
EXTT0=
EXTT1=
EXTT2=
EXTT3=
EXTT4=
EXTT5=
EXTT6=
EXTT7=
EXTT8=
EXTT9=
EXTT10=
EXTT11=
EXTT12=
EXTT13=
EXTT14=
PLAYORDER=
